<svg width="20" height="20" viewBox="0 0 20 20" fill="none" xmlns="http://www.w3.org/2000/svg">
<g id="Frame" clip-path="url(#clip0_3222_724)">
<g id="Group">
<path id="Vector" d="M4.66666 20H18C18.3536 20 18.6928 19.8595 18.9428 19.6095C19.1928 19.3594 19.3333 19.0203 19.3333 18.6667V3.61C19.333 3.47222 19.3041 3.33601 19.2483 3.21C19.2452 3.20284 19.2415 3.19593 19.2373 3.18933C19.189 3.08277 19.1222 2.98561 19.04 2.90233L16.4313 0.293333C16.348 0.211139 16.2509 0.144331 16.1443 0.096C16.1377 0.0918109 16.1308 0.0881334 16.1237 0.085C15.9975 0.0292232 15.8612 0.000277246 15.7233 0L4.66666 0C4.31303 0 3.9739 0.140476 3.72385 0.390524C3.4738 0.640573 3.33332 0.979711 3.33332 1.33333V10.6667H1.33332C1.15651 10.6667 0.986943 10.7369 0.861919 10.8619C0.736894 10.987 0.666656 11.1565 0.666656 11.3333L0.666656 17.3333C0.666656 17.5101 0.736894 17.6797 0.861919 17.8047C0.986943 17.9298 1.15651 18 1.33332 18H3.33332V18.6667C3.33332 19.0203 3.4738 19.3594 3.72385 19.6095C3.9739 19.8595 4.31303 20 4.66666 20ZM18.1953 3H17.2933C17.0388 2.99974 16.7948 2.89851 16.6148 2.71853C16.4348 2.53855 16.3336 2.29453 16.3333 2.04V1.138L18.1953 3ZM3.99999 1.33333C3.99999 1.15652 4.07023 0.986953 4.19525 0.861929C4.32028 0.736905 4.48985 0.666667 4.66666 0.666667H15.6667V2.04C15.6671 2.47128 15.8386 2.88478 16.1436 3.18974C16.4485 3.4947 16.862 3.66623 17.2933 3.66667H18.6667V18.6667C18.6667 18.8435 18.5964 19.013 18.4714 19.1381C18.3464 19.2631 18.1768 19.3333 18 19.3333H4.66666C4.48985 19.3333 4.32028 19.2631 4.19525 19.1381C4.07023 19.013 3.99999 18.8435 3.99999 18.6667V18H12C12.1768 18 12.3464 17.9298 12.4714 17.8047C12.5964 17.6797 12.6667 17.5101 12.6667 17.3333V11.3333C12.6667 11.1565 12.5964 10.987 12.4714 10.8619C12.3464 10.7369 12.1768 10.6667 12 10.6667H3.99999V1.33333ZM1.33332 11.3333H12V17.3333H1.33332V11.3333Z" fill="black"/>
<path id="Vector_2" d="M5.66665 3H13.6666C13.7551 3 13.8398 2.96488 13.9023 2.90237C13.9649 2.83986 14 2.75507 14 2.66667C14 2.57826 13.9649 2.49348 13.9023 2.43097C13.8398 2.36845 13.7551 2.33334 13.6666 2.33334H5.66665C5.57824 2.33334 5.49346 2.36845 5.43094 2.43097C5.36843 2.49348 5.33331 2.57826 5.33331 2.66667C5.33331 2.75507 5.36843 2.83986 5.43094 2.90237C5.49346 2.96488 5.57824 3 5.66665 3ZM5.66665 4.66667H13.6666C13.7551 4.66667 13.8398 4.63155 13.9023 4.56904C13.9649 4.50653 14 4.42174 14 4.33334C14 4.24493 13.9649 4.16015 13.9023 4.09763C13.8398 4.03512 13.7551 4 13.6666 4H5.66665C5.57824 4 5.49346 4.03512 5.43094 4.09763C5.36843 4.16015 5.33331 4.24493 5.33331 4.33334C5.33331 4.42174 5.36843 4.50653 5.43094 4.56904C5.49346 4.63155 5.57824 4.66667 5.66665 4.66667ZM5.66665 6.33334H17C17.0884 6.33334 17.1732 6.29822 17.2357 6.23571C17.2982 6.17319 17.3333 6.08841 17.3333 6C17.3333 5.9116 17.2982 5.82681 17.2357 5.7643C17.1732 5.70179 17.0884 5.66667 17 5.66667H5.66665C5.57824 5.66667 5.49346 5.70179 5.43094 5.7643C5.36843 5.82681 5.33331 5.9116 5.33331 6C5.33331 6.08841 5.36843 6.17319 5.43094 6.23571C5.49346 6.29822 5.57824 6.33334 5.66665 6.33334ZM5.66665 8H17C17.0884 8 17.1732 7.96488 17.2357 7.90237C17.2982 7.83986 17.3333 7.75507 17.3333 7.66667C17.3333 7.57826 17.2982 7.49348 17.2357 7.43097C17.1732 7.36845 17.0884 7.33334 17 7.33334H5.66665C5.57824 7.33334 5.49346 7.36845 5.43094 7.43097C5.36843 7.49348 5.33331 7.57826 5.33331 7.66667C5.33331 7.75507 5.36843 7.83986 5.43094 7.90237C5.49346 7.96488 5.57824 8 5.66665 8ZM17.3333 9.33334C17.3333 9.24493 17.2982 9.16015 17.2357 9.09763C17.1732 9.03512 17.0884 9 17 9H5.66665C5.57824 9 5.49346 9.03512 5.43094 9.09763C5.36843 9.16015 5.33331 9.24493 5.33331 9.33334C5.33331 9.42174 5.36843 9.50653 5.43094 9.56904C5.49346 9.63155 5.57824 9.66667 5.66665 9.66667H17C17.0884 9.66667 17.1732 9.63155 17.2357 9.56904C17.2982 9.50653 17.3333 9.42174 17.3333 9.33334ZM17 10.6667H14C13.9116 10.6667 13.8268 10.7018 13.7643 10.7643C13.7018 10.8268 13.6666 10.9116 13.6666 11C13.6666 11.0884 13.7018 11.1732 13.7643 11.2357C13.8268 11.2982 13.9116 11.3333 14 11.3333H17C17.0884 11.3333 17.1732 11.2982 17.2357 11.2357C17.2982 11.1732 17.3333 11.0884 17.3333 11C17.3333 10.9116 17.2982 10.8268 17.2357 10.7643C17.1732 10.7018 17.0884 10.6667 17 10.6667ZM17 12.3333H14C13.9116 12.3333 13.8268 12.3685 13.7643 12.431C13.7018 12.4935 13.6666 12.5783 13.6666 12.6667C13.6666 12.7551 13.7018 12.8399 13.7643 12.9024C13.8268 12.9649 13.9116 13 14 13H17C17.0884 13 17.1732 12.9649 17.2357 12.9024C17.2982 12.8399 17.3333 12.7551 17.3333 12.6667C17.3333 12.5783 17.2982 12.4935 17.2357 12.431C17.1732 12.3685 17.0884 12.3333 17 12.3333ZM17 14H14C13.9116 14 13.8268 14.0351 13.7643 14.0976C13.7018 14.1601 13.6666 14.2449 13.6666 14.3333C13.6666 14.4217 13.7018 14.5065 13.7643 14.569C13.8268 14.6316 13.9116 14.6667 14 14.6667H17C17.0884 14.6667 17.1732 14.6316 17.2357 14.569C17.2982 14.5065 17.3333 14.4217 17.3333 14.3333C17.3333 14.2449 17.2982 14.1601 17.2357 14.0976C17.1732 14.0351 17.0884 14 17 14ZM17 15.6667H14C13.9116 15.6667 13.8268 15.7018 13.7643 15.7643C13.7018 15.8268 13.6666 15.9116 13.6666 16C13.6666 16.0884 13.7018 16.1732 13.7643 16.2357C13.8268 16.2982 13.9116 16.3333 14 16.3333H17C17.0884 16.3333 17.1732 16.2982 17.2357 16.2357C17.2982 16.1732 17.3333 16.0884 17.3333 16C17.3333 15.9116 17.2982 15.8268 17.2357 15.7643C17.1732 15.7018 17.0884 15.6667 17 15.6667ZM17 17.3333H14C13.9116 17.3333 13.8268 17.3685 13.7643 17.431C13.7018 17.4935 13.6666 17.5783 13.6666 17.6667C13.6666 17.7551 13.7018 17.8399 13.7643 17.9024C13.8268 17.9649 13.9116 18 14 18H17C17.0884 18 17.1732 17.9649 17.2357 17.9024C17.2982 17.8399 17.3333 17.7551 17.3333 17.6667C17.3333 17.5783 17.2982 17.4935 17.2357 17.431C17.1732 17.3685 17.0884 17.3333 17 17.3333ZM6.33331 16.3333C6.68693 16.3333 7.02607 16.1929 7.27612 15.9428C7.52617 15.6928 7.66665 15.3536 7.66665 15V13.6667C7.66665 13.313 7.52617 12.9739 7.27612 12.7239C7.02607 12.4738 6.68693 12.3333 6.33331 12.3333C5.97969 12.3333 5.64055 12.4738 5.3905 12.7239C5.14046 12.9739 4.99998 13.313 4.99998 13.6667V15C4.99998 15.3536 5.14046 15.6928 5.3905 15.9428C5.64055 16.1929 5.97969 16.3333 6.33331 16.3333ZM5.66665 13.6667C5.66665 13.4899 5.73688 13.3203 5.86191 13.1953C5.98693 13.0702 6.1565 13 6.33331 13C6.51012 13 6.67969 13.0702 6.80472 13.1953C6.92974 13.3203 6.99998 13.4899 6.99998 13.6667V15C6.99998 15.1768 6.92974 15.3464 6.80472 15.4714C6.67969 15.5964 6.51012 15.6667 6.33331 15.6667C6.1565 15.6667 5.98693 15.5964 5.86191 15.4714C5.73688 15.3464 5.66665 15.1768 5.66665 15V13.6667ZM4.66665 16C4.66665 15.9116 4.63153 15.8268 4.56902 15.7643C4.5065 15.7018 4.42172 15.6667 4.33331 15.6667H2.99998V12.6667C2.99998 12.5783 2.96486 12.4935 2.90235 12.431C2.83984 12.3685 2.75505 12.3333 2.66665 12.3333C2.57824 12.3333 2.49346 12.3685 2.43094 12.431C2.36843 12.4935 2.33331 12.5783 2.33331 12.6667V15.6667C2.33331 15.8435 2.40355 16.0131 2.52858 16.1381C2.6536 16.2631 2.82317 16.3333 2.99998 16.3333H4.33331C4.42172 16.3333 4.5065 16.2982 4.56902 16.2357C4.63153 16.1732 4.66665 16.0884 4.66665 16ZM9.66665 16.3333C10.0203 16.3333 10.3594 16.1929 10.6095 15.9428C10.8595 15.6928 11 15.3536 11 15V14.6667C11 14.5783 10.9649 14.4935 10.9023 14.431C10.8398 14.3685 10.7551 14.3333 10.6666 14.3333H9.99998C9.91157 14.3333 9.82679 14.3685 9.76428 14.431C9.70177 14.4935 9.66665 14.5783 9.66665 14.6667C9.66665 14.7551 9.70177 14.8399 9.76428 14.9024C9.82679 14.9649 9.91157 15 9.99998 15H10.3333C10.3333 15.1768 10.2631 15.3464 10.1381 15.4714C10.013 15.5964 9.84346 15.6667 9.66665 15.6667C9.48984 15.6667 9.32027 15.5964 9.19524 15.4714C9.07022 15.3464 8.99998 15.1768 8.99998 15V13.6667C8.99964 13.5092 9.05508 13.3566 9.15648 13.2361C9.25787 13.1156 9.39866 13.0348 9.55389 13.0082C9.70913 12.9815 9.86879 13.0107 10.0046 13.0906C10.1403 13.1704 10.2435 13.2957 10.2956 13.4443C10.3277 13.5241 10.3893 13.5885 10.4677 13.6239C10.546 13.6594 10.635 13.6631 10.7161 13.6345C10.7972 13.6058 10.864 13.5469 10.9027 13.4701C10.9414 13.3933 10.9489 13.3045 10.9236 13.2223C10.8188 12.9259 10.6125 12.676 10.3412 12.5169C10.0699 12.3578 9.75118 12.2997 9.44123 12.3529C9.13127 12.406 8.85009 12.567 8.64736 12.8075C8.44462 13.0479 8.33339 13.3522 8.33331 13.6667V15C8.33331 15.3536 8.47379 15.6928 8.72384 15.9428C8.97389 16.1929 9.31302 16.3333 9.66665 16.3333Z" fill="black"/>
</g>
</g>
<defs>
<clipPath id="clip0_3222_724">
<rect width="20" height="20" fill="white"/>
</clipPath>
</defs>
</svg>
